# xmcd
# 
# Track frame offsets:
#     150
#     16000
#     58222
#     72172
# 
# Disc length: 1158
# 
# Revision: 2
# Processed by: cddbd v1.5.2PL0 Copyright (c) Steve Scherf et al.
# Submitted via: BonkEnc v1.0.6
# 
DISCID=2d048404
DTITLE=FREEMASONS - HEARTBREAK(MAKE ME A DANCER)
DYEAR=2009
DGENRE=House
TTITLE0=Heartbreak [Make Me A Dancer] (Radio Edit)
TTITLE1=Heartbreak (Make Me A Dancer) (Club Mix)
TTITLE2=Uninvited (Radio Edit)
TTITLE3=When You Touch Me (Radio Edit)
EXTD=
EXTT0=
EXTT1=
EXTT2=
EXTT3=
PLAYORDER=
